# xmcd CD database file
#
# Track frame offsets:
#	150
#	11840
#	23517
#	35534
#	46302
#	58430
#	67936
#	83089
#	95215
#	107513
#	118948
#	129388
#	141139
#	153131
#	164449
#	177448
#	190576
#	201926
#	213512
#	226589
#	239528
#	252188
#	263734
#	274179
#	287394
#	300270
#	311012
#
# Disc length: 4311 seconds
#
# Revision: 3
# Processed by: cddbd v1.5.1PL0 Copyright (c) Steve Scherf et al.
# Submitted via: CDex 1.51
#
DISCID=7510d51b
DTITLE=Various Artist - Lone Star Stomp
DYEAR=1997
DGENRE=Country
TTITLE0=Jesse James - Jesse James Boogie
TTITLE1=Gayle Bernard - Oh Brother!
TTITLE2=Tiny Colbert - Stand in Line and Take Your Turn
TTITLE3=Dub Adams - Pocahuntas Stomp
TTITLE4=Jerry Irby - Our Darling Baby Girl
TTITLE5=Jerry Irby - Divorce Me C.O.D
TTITLE6=Roy Lee Brown - Ice Man Song
TTITLE7=Dusty Rivers - Copperhead
TTITLE8=R.D Hendon - Blues Boogie
TTITLE9=Morris Mills  - What'll I Do Blues
TTITLE10=Frank Vance - Honey, What's the Matter with You
TTITLE11=Howard Wusterhausen - Who Says
TTITLE12=Bob Mannning - Silver Sage Stomp
TTITLE13=Lone Star Playboys - Warmed over Coffee
TTITLE14=Helen Phelps - Tennessee Avenue
TTITLE15=Dick Dyson - Salty Dog Blues
TTITLE16=Jesse James - Billy's Tune
TTITLE17=Billy Briggs - Pretty Baby Boogie
TTITLE18=Hope Griffths - Only Once in a While
TTITLE19=Dick Dyson - Hal Billy Boogie
TTITLE20=Benny Leaders - Clean Town Blues
TTITLE21=Leon Jenkins - Drinking My Life Away
TTITLE22=Eddie Miller - Motel Time
TTITLE23=Lester Woytek - Freeport Blues
TTITLE24=Dickie Jones - Jole Blon Likes to Boogie
TTITLE25=Jack Padgett - She's the Cutest Thing
TTITLE26=Dolores - Austin Waltz
EXTD=YEAR: 1997
EXTT0=
EXTT1=
EXTT2=
EXTT3=
EXTT4=
EXTT5=
EXTT6=
EXTT7=
EXTT8=
EXTT9=
EXTT10=
EXTT11=
EXTT12=
EXTT13=
EXTT14=
EXTT15=
EXTT16=
EXTT17=
EXTT18=
EXTT19=
EXTT20=
EXTT21=
EXTT22=
EXTT23=
EXTT24=
EXTT25=
EXTT26=
PLAYORDER=
